<?xml version="1.0" encoding="UTF-8"?><svg xmlns="http://www.w3.org/2000/svg" xmlns:xlink="http://www.w3.org/1999/xlink" viewBox="0 0 134.34 228.74"><defs><style>.cls-1{fill:#252d4f;}.cls-1,.cls-2,.cls-3,.cls-4,.cls-5,.cls-6,.cls-7,.cls-8{stroke-width:0px;}.cls-9{isolation:isolate;}.cls-2{fill:#e7bb61;}.cls-3{fill:none;}.cls-4{fill:#7b7891;}.cls-5,.cls-6{fill:#e8bb62;}.cls-6{opacity:.57;}.cls-7{fill:#44658e;}.cls-10,.cls-8{mix-blend-mode:multiply;}.cls-8{fill:url(#Degradado_sin_nombre_2);}</style><linearGradient id="Degradado_sin_nombre_2" x1="67.17" y1="-102.2" x2="67.17" y2="187.88" gradientUnits="userSpaceOnUse"><stop offset=".34" stop-color="#fff"/><stop offset=".4" stop-color="#fbfbfb"/><stop offset=".46" stop-color="#efefef"/><stop offset=".52" stop-color="#dcdcdc"/><stop offset=".58" stop-color="#c1c1c1"/><stop offset=".64" stop-color="#9e9f9f"/><stop offset=".7" stop-color="#737474"/><stop offset=".75" stop-color="#404242"/><stop offset=".81" stop-color="#070909"/><stop offset=".81" stop-color="#030505"/><stop offset=".93" stop-color="#010101"/></linearGradient></defs><g class="cls-9"><g id="Capa_2"><rect class="cls-4" x="-.28" y="1.07" width="134.91" height="226.61"/><rect class="cls-7" width="134.34" height="228.74"/><rect class="cls-8" y=".3" width="134.34" height="228.14"/><path class="cls-2" d="M30.86,68.66l1.52.36s.89.45.98.18,16.36,6.71,16.36,6.71l.09-1.07s-.98-.72-.36-1.52-.8-.27.09-1.25.27-1.52.72-1.97-.18-1.25,0-1.97.63-2.59.72-3.84.18-1.7.18-1.7l2.68.18.98.36.54-.36.72-.36.63-.72.98-.54,1.52.63.72-.27h.89l.72.36s.09-.72.8.18.89.36.89.36c.36.27.89-.09,1.07-.36s.89-.8.89-.8c0,0,.98-.18.98-.45s0-1.16.8-1.16,1.16.45,1.16.45l.8.27.36.45s.27.36.8.09.09.63.09.63c0,0,.72.18.54.63s-.45,1.16-.09,1.52.27.89.54,1.07-.09.72.09,1.07-.09.89.27,1.07,11.44,2.68,11.44,2.68c0,0,.72-.36.98-.18s.54.36,1.07.09,2.06,0,2.06,0c0,0,.63.54.45,1.16s-.27,1.52.72,1.07,3.4-1.25,3.4-1.25c0,0-.27-.63.09-.89s1.43-1.7,1.43-1.7c0,0,.27.45.98.27s1.43-.72,1.97-.72,1.7.45,1.97.72,1.43.45,1.88.45,2.5.54,3.31.09c1.89-1.05,3.49-.27,3.49-.27,0,0,.54.54,1.25.27s1.7-.27,2.06-.09.8,1.7.8,1.7l.36,1.7.27,1.79-2.15,2.41s-.36,1.7-.36,2.15-.18,3.22,0,3.76.54,1.43.36,2.06.36,3.13.36,3.13c0,0-.72,0-.63.45s.72,1.07.72,1.07c0,0-.18,2.24-.27,2.59s.8,2.86.8,2.86l-4.74-.89-1.34,7.78-2.77-.63-.63,2.5-1.97-.18-1.16,7.51-1.43,6.44-1.07,3.49-.63.54s-1.25,3.4-2.06,5.01-.63,3.31-.89,3.58-2.24.98-2.86,1.43-1.07,1.34-1.79,1.07-.98-1.43-1.79.8-2.41,7.51-2.41,7.51c0,0,1.07-.27,1.34-.18s.18,1.34.72,1.43,1.61.27,1.7.54.54,1.34-.27,2.32-.72-.54-1.79-.18c0,0,.27.54,0,.63s-1.16-.09-1.25.18-.18,1.7.8,2.95,3.22,7.33,3.22,7.33l-2.77.63-1.7,5.54s-1.43,1.34-2.24,1.34-1.7-.54-1.7-1.43c0,0-1.07.09-1.34.09s-1.16,0-.27.54-.27,1.07-.27,1.07l-.8,1.25-.54.54-8.49-4.74-.36-.63s-1.88,1.97-2.59,2.41-2.24,1.43-2.77,1.7-1.16,1.16-1.61,2.06-.63,1.34-1.25,1.88-.72,1.25-.98,1.52-2.5.18-2.86-.63-.36-1.34-.89-1.34-1.7.63-2.06-1.16c-.36-1.79-1.61-3.76-1.43-4.83s-1.79-4.74-3.04-4.92l-1.88.8s.18,1.07-.18,1.34-1.25.54-1.07,1.16-.63,1.34-.98.98-1.16-1.34-1.16-1.34l-.72-.89v-.89l-.98-.36-.45-1.88-.09-.72-.63-1.52-.54-.72-.27-.98-.63-.63.09-1.16-.63-1.07-.89-1.61s-1.43-3.22-2.15-3.76.36-1.07.36-1.07c0,0-.09-.8-.27-1.34s0-.45.45-1.25.27-2.32.27-2.32l.63-.54.54-1.34-1.16-1.79s-.36-1.7-.63-2.32-.72-.54-.98-.89-2.06-1.16-2.06-1.16c0,0-1.25-.54-1.34-1.07s-2.06-1.97-2.06-1.97c0,0,0-.8,1.43-1.34s1.88-2.06,1.79-2.5-.63-1.07.09-1.07,1.07-1.88,1.43-2.15,1.16.18,2.24-.8,1.7-3.67,1.7-3.67c0,0,1.43-1.52,2.32-1.52s.63-.72.63-1.16.27-.27.63-.8.8-1.25.8-1.25l.45-.8.27-.72.54.27s.27-1.25-.09-1.52-.89-1.25-1.16-1.43-.72-.54-.72-.54v-1.52s-.27-.8.54-.89.36.36.89-1.34,1.34-2.24.27-3.49-2.86-1.34-4.56-2.95-5.1-4.11-5.36-4.11-4.11-.18-4.11-.18c0,0-.89-.27-.89-1.43s.5-5.15.5-5.15l-.68-1.37.98-1.34s-.54-2.5.09-2.5,1.79-.27,1.79-.27l-.54-1.43.72-1.43-.09-3.58,1.52-1.43s-.98-1.61-.45-1.7Z"/><g class="cls-10"><ellipse class="cls-1" cx="67.17" cy="128.67" rx="11.1" ry="3.29"/><path class="cls-3" d="M60.35,109.43c0,3.62,2.91,6.65,6.45,6.79v-13.6c-3.55.16-6.45,3.18-6.45,6.81Z"/><path class="cls-5" d="M60.35,109.43c0-3.62,2.9-6.64,6.45-6.81v-5.84h-.15c-.12.02-.23.05-.35.06-2.05.15-3.96.73-5.7,1.83-3.8,2.41-5.83,5.89-6.03,10.38-.12,2.73.63,5.25,2.21,7.5.89,1.27,1.83,2.51,2.76,3.76,2.25,3.03,4.5,6.07,6.75,9.1.16.21.33.35.51.44v-13.63c-3.54-.14-6.45-3.17-6.45-6.79Z"/><path class="cls-6" d="M68.05,129.42s.06-.09.1-.13c3.06-4.13,6.13-8.24,9.17-12.38,2.16-2.95,2.91-6.25,2.24-9.85-.43-2.32-1.46-4.36-3.06-6.1-1.87-2.05-4.16-3.35-6.88-3.91-.51-.11-1.03-.17-1.55-.26h-1.27v5.84c.1,0,.2-.02.3-.02,3.78,0,6.86,3.05,6.87,6.81,0,3.77-3.1,6.83-6.92,6.82-.08,0-.17-.01-.25-.01v13.63c.42.2.88.06,1.25-.43Z"/></g></g></g></svg>